STARTFONT 2.1
COMMENT This font image translated from Metafont
COMMENT Input file was ``bnsl10''
COMMENT DPI was ``250'', usermag ``1000'', blackness ``3''
COMMENT shrink was 1
FONT -*-bengali-medium-o-*-*-*-250-*-*-*-*-*-fontspecific
SIZE 10 250 250
FONTBOUNDINGBOX 67 45 -19 -11
STARTPROPERTIES 4
FONT_ASCENT 34
FONT_DESCENT 4
COPYRIGHT "GNU General Public License"
_XMBDFED_INFO "Edited with xmbdfed 4.5."
ENDPROPERTIES
CHARS 249
STARTCHAR C001
ENCODING 1
SWIDTH 489 0
DWIDTH 17 0
BBX 19 34 4 -3
BITMAP
400000
400000
400000
3F8000
007E00
000100
000080
000080
000080
7FFFE0
020000
010000
01F800
07FC00
0F0600
1E0600
1C0600
000E00
000C00
001C00
003800
80F000
FFC000
7F0000
180000
040000
020000
010000
008000
004000
002000
001000
001000
000800
ENDCHAR
STARTCHAR C002
ENCODING 2
SWIDTH 604 0
DWIDTH 21 0
BBX 24 32 3 -1
BITMAP
080000
080000
060000
01FFC0
000030
000008
000004
000004
000004
3FFFFF
0C0000
040000
020000
0F8000
1FC010
1E6070
1C20F0
0033E0
003FE0
003CC0
0079C0
01E180
03C180
070380
FE0300
780300
000300
000300
000300
000700
000200
000300
ENDCHAR
STARTCHAR C003
ENCODING 3
SWIDTH 604 0
DWIDTH 21 0
BBX 23 30 4 1
BITMAP
800000
800000
600000
1FFF00
0000E0
000010
000008
000008
000008
7FFFFE
001000
001000
203000
202000
602000
402000
4060C0
4043C0
404F40
407C40
407040
400040
400040
6000C0
200080
200180
300300
1C0E00
0FFC00
03F000
ENDCHAR
STARTCHAR C004
ENCODING 4
SWIDTH 633 0
DWIDTH 22 0
BBX 23 30 5 1
BITMAP
200000
200000
200000
1FFC00
0003E0
000010
000008
000008
000008
FFFFFE
000800
001800
481000
481000
C81000
903000
9020C0
9021C0
902740
907E40
903840
900040
D00040
5000C0
680080
280180
340300
1E1E00
0FF800
03E000
ENDCHAR
STARTCHAR C005
ENCODING 5
SWIDTH 720 0
DWIDTH 25 0
BBX 22 23 6 -1
BITMAP
383204
78720C
78DA08
738E08
7F3E08
3CF418
03C410
070410
1C0C10
380830
600820
E00820
781820
1C1860
061C40
031640
01B340
01A1C0
00E080
00E080
00E000
006000
004000
ENDCHAR
STARTCHAR C006
ENCODING 6
SWIDTH 633 0
DWIDTH 22 0
BBX 20 23 5 -1
BITMAP
0003E0
000FF0
003C30
007030
00E070
01C060
018060
23E060
63F0E0
43F0C0
C1F0C0
81E0C0
8001C0
800180
800180
C00380
7FE300
3FFB00
001F00
000700
000600
000600
000200
ENDCHAR
STARTCHAR C007
ENCODING 7
SWIDTH 748 0
DWIDTH 26 0
BBX 26 33 4 -1
BITMAP
00060000
00040000
00080000
00080000
00080000
000C0000
0007E000
0003FF00
00001F80
000000C0
0001E040
0007F040
001E3040
00383040
00703040
00E07080
00C06180
11F06700
31F87E00
61F8F800
40F8C000
C0F0C000
8000C000
8000C000
8001C000
C0018000
7FF18000
3FFD8000
000F8000
00030000
00030000
00030000
00030000
ENDCHAR
STARTCHAR C008
ENCODING 8
SWIDTH 576 0
DWIDTH 20 0
BBX 18 21 5 1
BITMAP
001F00
007F80
01E0C0
438040
478040
CF80C0
8F8180
8F3B00
807E00
807C00
807C00
803C00
800200
800200
800200
400600
400400
200C00
303800
1FF000
0FC000
ENDCHAR
STARTCHAR C014
ENCODING 14
SWIDTH 288 0
DWIDTH 10 0
BBX 15 22 1 0
BITMAP
0FFE
0030
0060
00C0
00C0
0180
0180
0180
0180
0300
0300
0300
0300
0300
0300
0600
0600
0600
0C00
0C00
1800
F000
ENDCHAR
STARTCHAR C015
ENCODING 15
SWIDTH 0 0
DWIDTH 0 0
BBX 17 7 -19 -3
BITMAP
800080
800080
800080
C00180
7FFD00
3FFF00
000300
ENDCHAR
STARTCHAR C016
ENCODING 16
SWIDTH 604 0
DWIDTH 21 0
BBX 22 25 5 -3
BITMAP
FFFFFC
0180C0
01C0C0
03C0C0
03C0C0
06C0C0
0660C0
CC3180
787F00
01FE00
03C300
078300
070300
000700
000E00
081C00
0FF800
07E000
010000
00C000
002000
001000
000800
000400
000200
ENDCHAR
STARTCHAR C017
ENCODING 17
SWIDTH 633 0
DWIDTH 22 0
BBX 23 23 5 -1
BITMAP
FFFFFE
00C030
00E030
01E030
036030
036030
063030
CC1860
7807C0
0000C0
000080
000080
000080
0FC180
3FF100
7C3900
7C0D00
7C0700
380600
000200
000200
000600
000400
ENDCHAR
STARTCHAR C018
ENCODING 18
SWIDTH 1152 0
DWIDTH 40 0
BBX 41 23 5 0
BITMAP
000000000400
FFFF80FC0780
00C0C3830C00
00C06E008800
01E07801C800
01E07C03C800
0360620F3800
4630C11C1000
3C0F81781000
000001E01000
000003C03000
000007002000
000006002000
000000002000
000000006000
000000004000
000000004000
000000004000
00000000C000
000000008000
000000008000
000000008000
000000018000
ENDCHAR
STARTCHAR C019
ENCODING 19
SWIDTH 1152 0
DWIDTH 40 0
BBX 41 23 5 0
BITMAP
000000000400
FFFF80FC0780
00C0C3830C00
00C06E008800
01E07801C800
01E07C03C800
0360620F3800
4630C11C1000
3C0F81781000
000001E01000
000003C03000
000007002000
000006002000
000003C02000
000007E76000
00000C2FC000
00000818C000
00001E10C000
00001E00C000
00001E008000
00001C008000
000000008000
000000018000
ENDCHAR
STARTCHAR C020
ENCODING 20
SWIDTH 1008 0
DWIDTH 35 0
BBX 36 23 5 -1
BITMAP
FFFFFFFFF0
00C1800000
01C0C00000
01C0C00000
01C0C03C00
0360C03E00
0360C02300
6631E06100
3C0F204100
0000304100
0000704300
0000E0CE00
0003C09E00
0007009C00
000F009800
0007818000
0000E10000
0000710000
0000190000
00000F0000
0000060000
0000060000
0000020000
ENDCHAR
STARTCHAR C021
ENCODING 21
SWIDTH 633 0
DWIDTH 22 0
BBX 23 23 5 -1
BITMAP
FFFFFE
00C030
00E030
01E030
036030
036030
063030
CC1860
7807C0
0001C0
000F80
003E80
00F080
03C180
0F0100
0F0100
01C100
00E300
003200
001A00
000E00
000600
000400
ENDCHAR
STARTCHAR C022
ENCODING 22
SWIDTH 777 0
DWIDTH 27 0
BBX 28 23 5 -1
BITMAP
FFFFFFF0
00E03180
00E03100
01E03100
03603100
03603300
06303200
CC186200
7807C200
00008600
00018400
00010400
00010400
000F8C00
001FC800
003F6800
003E2800
001C3800
00001000
00001000
00001000
00003000
00002000
ENDCHAR
STARTCHAR C023
ENCODING 23
SWIDTH 633 0
DWIDTH 22 0
BBX 23 22 5 0
BITMAP
FFFFFE
00C030
00E030
01E030
036030
036030
063030
CC1860
7807C0
0000C0
000080
000080
0F0080
3F9D80
70BF00
406300
B84100
F80300
F80200
700200
000200
000600
ENDCHAR
STARTCHAR C024
ENCODING 24
SWIDTH 489 0
DWIDTH 17 0
BBX 20 25 3 -3
BITMAP
3FFFF0
010000
00F800
03FC00
078400
0F0600
0E0600
000E00
000C00
001C00
183800
1FF000
07C000
010000
00C000
002000
1F1000
7FF800
E0E400
E02000
E02000
C06000
004000
004000
004000
ENDCHAR
STARTCHAR C025
ENCODING 25
SWIDTH 748 0
DWIDTH 26 0
BBX 27 22 5 0
BITMAP
FFFFFFE0
00010000
00010000
00030000
000F0000
00723C00
01C27C00
07027C00
0C067C00
30040C00
60041800
E0063000
300FE000
1C080000
06080000
03080000
01980000
00900000
1CD00000
3C700000
38300000
00200000
ENDCHAR
STARTCHAR C026
ENCODING 26
SWIDTH 691 0
DWIDTH 24 0
BBX 25 22 5 0
BITMAP
FFFFFF80
00010000
00010000
00030000
000F0000
00720000
01C2E000
0703F000
0C063000
30042000
60046000
E0046000
300C6000
1C084000
0608C000
0308C000
0198C000
0090C000
1CD0C000
3C708000
38318000
00200000
ENDCHAR
STARTCHAR C027
ENCODING 27
SWIDTH 547 0
DWIDTH 19 0
BBX 21 25 4 -3
BITMAP
7FFFF8
000000
000000
078600
1FCF00
386D80
3E3D80
3E3980
3E1380
3C0300
000700
000E00
001C00
C07800
7FE000
3F8000
0C0000
020000
018000
004000
002000
001000
000800
000400
000200
ENDCHAR
STARTCHAR C028
ENCODING 28
SWIDTH 662 0
DWIDTH 23 0
BBX 25 25 4 -3
BITMAP
7FFFFF80
01000000
01000000
01FC0000
03FE0000
0F830000
1F03E000
1C03F000
00033000
00072000
00066000
000E6000
801C6000
E0786000
7FE04000
1F80C000
0C00C000
0200C000
01008000
00818000
00418000
00218000
00100000
00080000
00040000
ENDCHAR
STARTCHAR C029
ENCODING 29
SWIDTH 691 0
DWIDTH 24 0
BBX 18 21 6 1
BITMAP
01F080
07F8C0
0E0DC0
9F0740
9F8340
988140
808040
8180C0
810E80
831F80
861F00
841F00
800E80
400080
400080
400080
200180
300300
1C0E00
0FFC00
03F000
ENDCHAR
STARTCHAR C030
ENCODING 30
SWIDTH 720 0
DWIDTH 25 0
BBX 19 21 6 1
BITMAP
781C40
3E7E60
07E2E0
03C1A0
CFE1A0
9FF120
BFF020
BFF060
B8E740
800FC0
800F80
800F80
800740
400040
400040
400040
2000C0
300180
1C0700
0FFE00
03F800
ENDCHAR
STARTCHAR C031
ENCODING 31
SWIDTH 633 0
DWIDTH 22 0
BBX 23 22 5 0
BITMAP
FFFFFE
040000
040000
03E000
0FF000
1E1BC0
3C1E60
3819E0
003BE0
0033E0
0073C0
81E380
FF8000
7E0000
100000
080000
040000
020000
010000
008000
004000
004000
ENDCHAR
STARTCHAR C032
ENCODING 32
SWIDTH 403 0
DWIDTH 14 0
BBX 0 0 0 0
BITMAP
ENDCHAR
STARTCHAR C033
ENCODING 33
SWIDTH 604 0
DWIDTH 21 0
BBX 10 28 13 -4
BITMAP
01C0
01C0
01C0
03C0
0380
0380
0380
0780
0700
0700
0700
0E00
0E00
0E00
0C00
0C00
1C00
1C00
1800
1800
0000
0000
0000
0000
7800
F800
F800
F000
ENDCHAR
STARTCHAR C034
ENCODING 34
SWIDTH 460 0
DWIDTH 16 0
BBX 14 13 7 16
BITMAP
1C70
3EF8
3EFC
3EFC
1E7C
0618
0C18
0C30
1860
30C0
6180
C300
8200
ENDCHAR
STARTCHAR C035
ENCODING 35
SWIDTH 547 0
DWIDTH 19 0
BBX 17 28 3 -6
BITMAP
001080
001980
003180
003300
006300
006300
00C600
00C600
018C00
018C00
3FFF80
3FFF80
033000
063000
063000
FFFF00
FFFF00
0CC000
18C000
198000
318000
318000
630000
630000
660000
C60000
CC0000
840000
ENDCHAR
STARTCHAR C036
ENCODING 36
SWIDTH 633 0
DWIDTH 22 0
BBX 21 32 2 -3
BITMAP
000040
0000C0
0000C0
000180
000180
000300
000600
000600
000C00
000C00
001800
001800
003000
003000
006000
00C000
00C7F8
0187F8
018000
030000
030000
060000
060000
0C0000
180000
180000
300000
300000
600000
600000
C00000
800000
ENDCHAR
STARTCHAR C037
ENCODING 37
SWIDTH 691 0
DWIDTH 24 0
BBX 25 32 3 -3
BITMAP
00E00080
01100380
021C0F00
0213F600
04100C00
04100C00
04101800
08103000
08206000
0820C000
0820C000
08418000
08430000
08860000
07060000
000C0000
00180000
0030E000
00611000
00621000
00C21000
01841000
03041000
03041000
06081000
0C082000
18082000
30082000
30084000
60084000
C0088000
80070000
ENDCHAR
STARTCHAR C038
ENCODING 38
SWIDTH 489 0
DWIDTH 17 0
BBX 17 26 6 -3
BITMAP
078000
1FC780
3C4400
786C00
706800
00E800
01C800
C39800
FF1000
3C1000
081000
043000
022000
012000
00A000
01E000
07C000
1E4000
784000
E0C000
F88000
1C8000
068000
038000
030000
010000
ENDCHAR
STARTCHAR C039
ENCODING 39
SWIDTH 288 0
DWIDTH 10 0
BBX 8 13 7 16
BITMAP
1C
3E
3E
3F
1F
06
06
0C
0C
18
30
60
C0
ENDCHAR
STARTCHAR C040
ENCODING 40
SWIDTH 288 0
DWIDTH 10 0
BBX 12 35 4 -7
BITMAP
0010
0020
0040
00C0
0180
0100
0300
0600
0600
0C00
0C00
1800
1800
3800
3000
3000
7000
6000
6000
E000
E000
C000
C000
C000
C000
C000
C000
C000
C000
4000
4000
6000
2000
2000
2000
ENDCHAR
STARTCHAR C041
ENCODING 41
SWIDTH 288 0
DWIDTH 10 0
BBX 12 35 -1 -7
BITMAP
0040
0040
0060
0020
0020
0020
0030
0030
0030
0030
0030
0030
0030
0030
0030
0070
0060
0060
0060
00E0
00C0
00C0
01C0
0180
0180
0300
0300
0600
0C00
0C00
1800
1000
2000
4000
8000
ENDCHAR
STARTCHAR C042
ENCODING 42
SWIDTH 489 0
DWIDTH 17 0
BBX 15 18 6 11
BITMAP
0040
00C0
00C0
00C0
30C6
199C
0DB8
07E0
03C0
0780
0FC0
3B60
7330
C618
0600
0600
0600
0400
ENDCHAR
STARTCHAR C043
ENCODING 43
SWIDTH 691 0
DWIDTH 24 0
BBX 21 23 4 -1
BITMAP
000400
000C00
000C00
000C00
001800
001800
001800
001800
003000
003000
FFFFF8
FFFFF8
006000
006000
006000
006000
00C000
00C000
00C000
00C000
018000
018000
008000
ENDCHAR
STARTCHAR C044
ENCODING 44
SWIDTH 345 0
DWIDTH 12 0
BBX 7 13 4 -8
BITMAP
38
7C
7E
7E
3E
0C
0C
18
30
30
60
C0
80
ENDCHAR
STARTCHAR C045
ENCODING 45
SWIDTH 345 0
DWIDTH 12 0
BBX 11 3 3 8
BITMAP
FFE0
FFE0
FFE0
ENDCHAR
STARTCHAR C046
ENCODING 46
SWIDTH 489 0
DWIDTH 17 0
BBX 6 22 13 0
BITMAP
04
04
04
04
0C
08
08
08
18
10
10
10
30
20
20
20
60
40
40
40
C0
80
ENDCHAR
STARTCHAR C047
ENCODING 47
SWIDTH 288 0
DWIDTH 10 0
BBX 16 27 -1 -5
BITMAP
0001
0003
0006
0006
000C
000C
0018
0030
0030
0060
0060
00C0
00C0
0180
0180
0300
0300
0600
0600
0C00
1800
1800
3000
3000
6000
6000
C000
ENDCHAR
STARTCHAR C048
ENCODING 48
SWIDTH 547 0
DWIDTH 19 0
BBX 16 16 4 3
BITMAP
03F0
0FFC
1C0E
3002
6001
4001
C001
8001
8001
8003
8002
8006
400C
7038
3FF0
0FC0
ENDCHAR
STARTCHAR C049
ENCODING 49
SWIDTH 547 0
DWIDTH 19 0
BBX 11 21 7 1
BITMAP
2000
3000
6000
4000
4000
2000
3800
1C00
0700
0380
00C0
0040
0020
0020
0020
0020
3C60
7EC0
FF80
FF00
7C00
ENDCHAR
STARTCHAR C050
ENCODING 50
SWIDTH 547 0
DWIDTH 19 0
BBX 14 23 5 -1
BITMAP
0400
1C00
1800
0C00
0700
01C0
0070
0018
000C
000C
000C
0018
E070
FFC0
7800
1C00
0E00
0300
0180
00C0
0060
0020
0010
ENDCHAR
STARTCHAR C051
ENCODING 51
SWIDTH 547 0
DWIDTH 19 0
BBX 15 16 5 2
BITMAP
4000
C000
81F8
83FC
83E6
83E2
81C2
8002
8002
C006
4004
400C
6018
3070
1FE0
0F80
ENDCHAR
STARTCHAR C052
ENCODING 52
SWIDTH 547 0
DWIDTH 19 0
BBX 18 23 3 -1
BITMAP
007E00
01FF80
0307C0
0401C0
0800C0
0800C0
180080
180080
1C0100
1E0600
0FFC00
07F800
0FFC00
181E00
200E00
400600
400600
C00400
C00400
E00800
F83000
7FE000
1F8000
ENDCHAR
STARTCHAR C053
ENCODING 53
SWIDTH 547 0
DWIDTH 19 0
BBX 19 23 3 -1
BITMAP
001000
007800
00F800
01D800
039800
070F00
0E07E0
1C03C0
180700
380E00
701C00
603800
E03000
C07000
C06000
C0E000
C0C000
C0C000
40C000
60C000
386000
1FF000
07F000
ENDCHAR
STARTCHAR C054
ENCODING 54
SWIDTH 547 0
DWIDTH 19 0
BBX 15 20 5 1
BITMAP
0200
0300
4100
4100
C100
8100
8102
810E
811E
8172
81E2
8182
8002
C006
4004
400C
6018
3070
1FE0
0F80
ENDCHAR
STARTCHAR C055
ENCODING 55
SWIDTH 547 0
DWIDTH 19 0
BBX 13 23 6 -1
BITMAP
01E0
07F0
1E10
3818
7018
E018
C018
C018
7FF8
3FF8
0030
0070
0060
0060
0060
00E0
00C0
00C0
00C0
00C0
00C0
0060
0060
ENDCHAR
STARTCHAR C056
ENCODING 56
SWIDTH 547 0
DWIDTH 19 0
BBX 17 21 4 1
BITMAP
100000
100000
100000
100000
100000
100000
300000
200080
3FC180
3FFF00
603000
403000
402000
406000
404000
C0C000
818000
830000
8E0000
FC0000
700000
ENDCHAR
STARTCHAR C057
ENCODING 57
SWIDTH 547 0
DWIDTH 19 0
BBX 16 23 3 -1
BITMAP
0400
0400
0C00
0E00
0E00
0700
0780
03E0
01F8
007C
001E
000F
0007
0003
0783
1FC3
31E3
70E2
F062
F064
F068
E070
0060
ENDCHAR
STARTCHAR C058
ENCODING 58
SWIDTH 403 0
DWIDTH 14 0
BBX 9 17 7 2
BITMAP
0700
0F80
1F80
1F00
0E00
0000
0000
0000
0000
0000
0000
0000
3800
7C00
FC00
F800
7000
ENDCHAR
STARTCHAR C059
ENCODING 59
SWIDTH 345 0
DWIDTH 12 0
BBX 8 20 4 -8
BITMAP
0E
1F
1F
1F
0E
00
00
38
7C
7E
7E
3E
0C
0C
18
30
30
60
C0
80
ENDCHAR
STARTCHAR C060
ENCODING 60
SWIDTH 748 0
DWIDTH 26 0
BBX 15 22 13 0
BITMAP
0002
0602
0402
0402
0406
0C04
0804
0804
080C
1808
1008
1008
1018
3010
2010
2010
2030
6020
4020
4020
4060
C040
ENDCHAR
STARTCHAR C061
ENCODING 61
SWIDTH 691 0
DWIDTH 24 0
BBX 23 10 3 5
BITMAP
3FFFFE
3FFFFE
000000
000000
000000
000000
000000
000000
FFFFF8
FFFFF8
ENDCHAR
STARTCHAR C062
ENCODING 62
SWIDTH 489 0
DWIDTH 17 0
BBX 18 25 5 -3
BITMAP
FFFFC0
040000
03E000
0FF000
1E1000
3C1800
381800
003800
003000
007000
60E000
7FC000
1F0000
040000
030000
008000
004000
07E000
3F9000
788000
788000
1D8000
070000
030000
030000
ENDCHAR
STARTCHAR C063
ENCODING 63
SWIDTH 806 0
DWIDTH 28 0
BBX 14 26 17 -2
BITMAP
07F0
1C38
301C
3C0C
7C0C
7C0C
7808
0018
0030
0060
01C0
0300
0600
0400
0C00
0800
1800
1800
1800
0000
0000
0000
7800
F800
F800
F000
ENDCHAR
STARTCHAR C064
ENCODING 64
SWIDTH 662 0
DWIDTH 23 0
BBX 24 25 5 -3
BITMAP
FFFFFF
001000
001000
003000
3E2000
7F2000
F1A000
F0E070
F0E3F0
E04E20
007860
00E040
00C040
0000C0
0007C0
001F80
007880
00E180
01F100
003900
000D00
000700
000600
000600
000200
ENDCHAR
STARTCHAR C065
ENCODING 65
SWIDTH 288 0
DWIDTH 10 0
BBX 11 23 5 0
BITMAP
0400
C7E0
6C00
2800
3800
1800
1800
1000
1000
1000
3000
2000
2000
2000
6000
4000
4000
4000
C000
8000
8000
8000
8000
ENDCHAR
STARTCHAR C066
ENCODING 66
SWIDTH 518 0
DWIDTH 18 0
BBX 11 22 6 0
BITMAP
03C0
0FE0
1C20
3820
6860
4FC0
8780
8000
8000
8000
8000
C000
6000
3800
1C00
0700
0380
00C0
0060
0020
0020
0020
ENDCHAR
STARTCHAR C067
ENCODING 67
SWIDTH 547 0
DWIDTH 19 0
BBX 21 25 4 -3
BITMAP
7FFFF8
180000
180000
180000
3E0000
37FC00
31FE00
30E200
71C300
678300
7E0700
380600
000E00
001C00
01F800
FFE000
7E0000
018000
004000
002000
001000
000800
000400
000400
000200
ENDCHAR
STARTCHAR C068
ENCODING 68
SWIDTH 604 0
DWIDTH 21 0
BBX 22 21 5 1
BITMAP
FFFFFC
002000
002000
406000
404000
C04000
804000
80C180
808780
809E80
80F880
80E080
800080
800080
C00180
400100
400300
600600
381C00
1FF800
07E000
ENDCHAR
STARTCHAR C069
ENCODING 69
SWIDTH 316 0
DWIDTH 11 0
BBX 14 32 3 -1
BITMAP
8000
8000
E000
7F80
1FE0
0070
0018
0008
0008
3FFC
0030
0060
00C0
0180
0300
0600
0C00
0800
1800
1000
3000
2000
6000
4000
4000
4000
4000
6000
2180
3380
1F80
0700
ENDCHAR
STARTCHAR C070
ENCODING 70
SWIDTH 547 0
DWIDTH 19 0
BBX 20 22 5 0
BITMAP
FFFFF0
780180
1C0100
060100
030100
010300
018200
03E200
0F7200
1C1E00
380C00
F00400
E00400
B80C00
0E0800
030800
018800
00D800
005000
007000
003000
003000
ENDCHAR
STARTCHAR C071
ENCODING 71
SWIDTH 547 0
DWIDTH 19 0
BBX 20 22 5 0
BITMAP
FFFFF0
380180
300100
700100
600100
600300
600200
3FC200
1F8200
070600
0E0400
3C0400
700400
700C00
5C0800
070800
018800
00D800
007000
003000
003000
003000
ENDCHAR
STARTCHAR C072
ENCODING 72
SWIDTH 345 0
DWIDTH 12 0
BBX 10 20 4 2
BITMAP
0780
0C40
1840
1040
10C0
1180
0F00
0000
0000
0000
0000
0000
0000
3C00
6200
C200
8200
8600
8C00
7800
ENDCHAR
STARTCHAR C073
ENCODING 73
SWIDTH 259 0
DWIDTH 9 0
BBX 25 33 -10 0
BITMAP
0FFC0000
3FFF8000
7003C000
40006000
80003000
80001000
80000800
FC000800
7FF80800
03FC0800
00040800
00047F80
00040800
00000800
00001800
00001000
00001000
00001000
00003000
00002000
00002000
00002000
00006000
00004000
00004000
00004000
0000C000
00008000
00008000
00008000
00018000
00010000
00010000
ENDCHAR
STARTCHAR C074
ENCODING 74
SWIDTH 691 0
DWIDTH 24 0
BBX 25 23 5 0
BITMAP
00000400
FFFF0780
00010C00
00030800
00060800
001E0800
00721800
01C61000
07041000
0C041000
38043000
600C2000
60082000
38082000
0C0C6000
061E4000
03134000
01914000
0091C000
00F08000
00608000
00600000
00600000
ENDCHAR
STARTCHAR C075
ENCODING 75
SWIDTH 604 0
DWIDTH 21 0
BBX 22 22 5 0
BITMAP
00203C
007060
01D840
7B8C40
FE0440
FC04C0
F00C80
001880
007080
01E180
0F8100
3E0100
1F0100
038300
00C200
006200
002200
001600
001400
000C00
000C00
000C00
ENDCHAR
STARTCHAR C076
ENCODING 76
SWIDTH 748 0
DWIDTH 26 0
BBX 27 22 5 0
BITMAP
FFFFFFE0
18006000
18004000
18004000
7F004000
FFC0FC00
F8FFFE00
F87F8600
70608600
00618C00
00610C00
00C10C00
07C11800
0FE31800
0FF21800
0F9A3000
071A3000
000E3000
000C3000
000C6000
000C2000
000C0000
ENDCHAR
STARTCHAR C077
ENCODING 77
SWIDTH 403 0
DWIDTH 14 0
BBX 9 22 6 0
BITMAP
0F00
1880
3080
2080
2180
2300
1E00
0000
0000
0000
C000
E000
7000
3000
3800
1800
0C00
0C00
0400
0600
0200
0200
ENDCHAR
STARTCHAR C078
ENCODING 78
SWIDTH 518 0
DWIDTH 18 0
BBX 19 22 5 0
BITMAP
07C1E0
1C3300
301A00
600E00
600E00
C00600
C00400
CE0400
DE0400
7E0C00
3C0800
000800
000800
001800
001000
001000
001000
003000
002000
002000
002000
006000
ENDCHAR
STARTCHAR C079
ENCODING 79
SWIDTH 259 0
DWIDTH 9 0
BBX 24 31 -9 0
BITMAP
800000
800000
800000
7FF000
000FC0
000030
000008
000008
000008
0000FF
000010
000010
000030
000020
000020
000020
000060
000040
000040
000040
0000C0
000080
000080
000080
000180
000100
000100
000100
000300
000200
000200
ENDCHAR
STARTCHAR C080
ENCODING 80
SWIDTH 806 0
DWIDTH 28 0
BBX 24 23 6 0
BITMAP
000200
1F0200
30821E
60427F
7046E1
F0C581
E08701
018602
030C1E
06083C
1C083E
700802
E01C02
381402
0C1204
06130C
0331F8
0120F0
01A000
00A000
00E000
004000
004000
ENDCHAR
STARTCHAR C081
ENCODING 81
SWIDTH 892 0
DWIDTH 31 0
BBX 28 23 5 -1
BITMAP
0003E000
000FF000
003C3000
007031C0
00E077E0
01C06E30
01807810
23E07010
63F0E020
43F0C3E0
C1F0C7C0
81E0C780
8001C7C0
80018040
80018040
C003C0C0
7FE36180
3FFB3F00
001F1E00
00070000
00060000
00060000
00060000
ENDCHAR
STARTCHAR C082
ENCODING 82
SWIDTH 604 0
DWIDTH 21 0
BBX 22 27 5 -5
BITMAP
FFFFFC
002000
002000
406000
404000
C04000
804000
80C180
808780
809E80
80F880
80E080
800080
800080
C00180
400100
400300
600600
381C00
1FF800
07E000
000000
000000
078000
0F8000
0F8000
0F0000
ENDCHAR
STARTCHAR C083
ENCODING 83
SWIDTH 576 0
DWIDTH 20 0
BBX 22 22 4 0
BITMAP
703C3C
787E60
0CC240
058140
078140
1FC0C0
3FE080
7FE080
FFE080
FFE180
E3C100
000100
000100
000300
000200
000200
000200
000600
000400
000400
000400
000C00
ENDCHAR
STARTCHAR C084
ENCODING 84
SWIDTH 489 0
DWIDTH 17 0
BBX 19 31 4 0
BITMAP
400000
400000
400000
3F8000
007E00
000100
000080
000080
000080
7FFFE0
080000
080000
180000
100000
100000
100000
300000
201C00
203C00
603C00
403800
401800
401000
C03000
806000
80C000
818000
870000
9E0000
780000
600000
ENDCHAR
STARTCHAR C085
ENCODING 85
SWIDTH 0 0
DWIDTH 0 0
BBX 13 12 -10 -11
BITMAP
1E00
7E00
E000
8000
8000
FF00
7F80
00C0
0060
0030
0018
0008
ENDCHAR
STARTCHAR C086
ENCODING 86
SWIDTH 489 0
DWIDTH 17 0
BBX 19 27 4 -5
BITMAP
7FFFE0
080000
080000
180000
100000
100000
100000
300000
201C00
203C00
603C00
403800
401800
401000
C03000
806000
80C000
818000
870000
9E0000
780000
600000
000000
700000
F00000
F00000
E00000
ENDCHAR
STARTCHAR C087
ENCODING 87
SWIDTH 0 0
DWIDTH 0 0
BBX 7 9 -8 -8
BITMAP
08
18
70
E0
C0
70
38
0E
06
ENDCHAR
STARTCHAR C088
ENCODING 88
SWIDTH 489 0
DWIDTH 17 0
BBX 19 22 4 0
BITMAP
7FFFE0
080000
080000
180000
100000
100000
100000
300000
201C00
203C00
603C00
403800
401800
401000
C03000
806000
80C000
818000
870000
9E0000
780000
600000
ENDCHAR
STARTCHAR C089
ENCODING 89
SWIDTH 547 0
DWIDTH 19 0
BBX 20 22 5 0
BITMAP
FFFFF0
780180
1C0100
060100
030100
010300
018200
038200
0F0200
1C0600
380400
F00400
E00400
B80C00
0E0800
030800
018800
00D800
005000
007000
003000
003000
ENDCHAR
STARTCHAR C090
ENCODING 90
SWIDTH 489 0
DWIDTH 17 0
BBX 20 33 3 1
BITMAP
001800
003800
007000
006000
006000
006000
006000
006000
002000
003000
003000
001000
3FFFF0
001800
001800
001C00
003C00
003400
007600
006600
00E600
01C600
038600
070600
0E0E00
3C0C00
701C00
E01800
C03800
C07000
41E000
7FC000
3E0000
ENDCHAR
STARTCHAR C091
ENCODING 91
SWIDTH 201 0
DWIDTH 7 0
BBX 15 36 0 -7
BITMAP
007E
007C
00FC
00E0
00E0
00C0
01C0
01C0
01C0
0180
0380
0380
0380
0300
0700
0700
0700
0600
0E00
0E00
0E00
0C00
1C00
1C00
1C00
1800
3800
3800
3800
3000
7000
7000
7000
6000
FC00
FC00
ENDCHAR
STARTCHAR C092
ENCODING 92
SWIDTH 460 0
DWIDTH 16 0
BBX 14 13 6 16
BITMAP
0104
030C
0618
0C30
1860
3060
30C0
60C0
79F0
FDF8
7DF8
7DF0
38E0
ENDCHAR
STARTCHAR C093
ENCODING 93
SWIDTH 201 0
DWIDTH 7 0
BBX 14 36 -2 -7
BITMAP
007C
00FC
00FC
0018
0018
0038
0038
0030
0070
0070
0070
0060
00E0
00E0
00E0
00C0
01C0
01C0
01C0
0180
0380
0380
0380
0300
0700
0700
0700
0600
0E00
0E00
0E00
0C00
1C00
FC00
FC00
F800
ENDCHAR
STARTCHAR C094
ENCODING 94
SWIDTH 0 0
DWIDTH 0 0
BBX 17 9 0 23
BITMAP
000180
000600
001800
007000
01C000
070000
0E0000
380000
E00000
ENDCHAR
STARTCHAR C095
ENCODING 95
SWIDTH 0 0
DWIDTH 0 0
BBX 6 6 -4 -9
BITMAP
80
C0
60
30
18
0C
ENDCHAR
STARTCHAR C096
ENCODING 96
SWIDTH 288 0
DWIDTH 10 0
BBX 7 13 7 16
BITMAP
06
0E
18
18
30
60
C0
C0
F0
F8
F8
F8
70
ENDCHAR
STARTCHAR C097
ENCODING 97
SWIDTH 806 0
DWIDTH 28 0
BBX 29 23 5 -1
BITMAP
FFFFFFF8
018000C0
00400080
407E0080
40FF0080
41F18180
61F0C100
21F04100
20E04100
20004300
30004200
1000C200
10008200
18018600
0801C400
0C034400
070E6400
03FC2C00
00F03800
00001800
00001800
00001800
00001000
ENDCHAR
STARTCHAR C098
ENCODING 98
SWIDTH 518 0
DWIDTH 18 0
BBX 20 22 4 0
BITMAP
7FFFF0
000180
000100
000300
000F00
003300
00C200
030200
0C0200
380600
600400
E00400
300400
1C0C00
060800
030800
018800
00D800
005000
007000
003000
003000
ENDCHAR
STARTCHAR C099
ENCODING 99
SWIDTH 489 0
DWIDTH 17 0
BBX 19 22 4 0
BITMAP
7FFFE0
080000
080000
180000
180000
140000
160000
338000
21F000
207C00
600C00
400800
401800
401000
C03000
806000
80C000
818000
870000
9E0000
780000
600000
ENDCHAR
STARTCHAR C100
ENCODING 100
SWIDTH 460 0
DWIDTH 16 0
BBX 18 22 4 0
BITMAP
7FFFC0
180000
180000
300000
300000
300400
301C00
607800
61D800
671000
6C3000
F82000
E06000
C04000
004000
00C000
008000
008000
008000
008000
008000
018000
ENDCHAR
STARTCHAR C101
ENCODING 101
SWIDTH 316 0
DWIDTH 11 0
BBX 13 23 4 -1
BITMAP
7FF8
0060
00C0
0180
0300
0600
0C00
1800
1000
3000
2000
6000
4000
C000
8000
8000
8000
8000
C000
4300
6700
3F00
0E00
ENDCHAR
STARTCHAR C102
ENCODING 102
SWIDTH 662 0
DWIDTH 23 0
BBX 24 22 5 0
BITMAP
FFFFFF
380000
1C0000
060000
030380
0107C0
018460
078420
0E0420
1C0C20
3809E0
700BC0
E00BC0
781B80
0C1000
061000
031000
01B000
00A000
00E000
006000
006000
ENDCHAR
STARTCHAR C103
ENCODING 103
SWIDTH 547 0
DWIDTH 19 0
BBX 20 22 5 0
BITMAP
03E0F0
0FF180
1C1900
380D00
700500
FE0700
FF0200
E18200
018200
038600
030400
070400
0E0400
1C0C00
180800
000800
000800
001800
001000
001000
001000
003000
ENDCHAR
STARTCHAR C104
ENCODING 104
SWIDTH 489 0
DWIDTH 17 0
BBX 19 25 4 -3
BITMAP
7FFFE0
020000
010000
01F800
07FC00
0F0600
1E0600
1C0600
000E00
000C00
001C00
003800
80F000
FFC000
7F0000
180000
040000
020000
010000
008000
004000
002000
001000
001000
000800
ENDCHAR
STARTCHAR C105
ENCODING 105
SWIDTH 259 0
DWIDTH 9 0
BBX 24 33 4 0
BITMAP
003F00
00FFE0
03C0F0
070018
0E000C
0C0004
1C0006
180002
180003
180000
080000
7FE000
060000
040000
040000
040000
0C0000
080000
080000
080000
180000
100000
100000
100000
300000
200000
200000
200000
600000
400000
400000
400000
C00000
ENDCHAR
STARTCHAR C106
ENCODING 106
SWIDTH 691 0
DWIDTH 24 0
BBX 25 22 5 0
BITMAP
FFFFFF80
00400000
01C00000
03C00000
46300000
C40FF800
8C001000
88001000
88182000
8C782000
87EC4000
83844000
80044000
C0044000
400C8000
60188000
38308000
1FE08000
07C08000
00008000
00008000
00008000
ENDCHAR
STARTCHAR C107
ENCODING 107
SWIDTH 691 0
DWIDTH 24 0
BBX 25 22 5 0
BITMAP
FFFFFF80
00030000
00020000
00038000
001FC000
00766000
01C42000
07041000
0C041000
300C1000
60081000
E008F000
3809E000
0C19E000
0611C000
03100000
01900000
00B00000
00E00000
00600000
00600000
00600000
ENDCHAR
STARTCHAR C108
ENCODING 108
SWIDTH 604 0
DWIDTH 21 0
BBX 22 22 5 0
BITMAP
FFFFFC
000060
000040
000040
000040
1F1CC0
3FBE80
60A280
404180
804180
804100
8E4100
9E0100
5E0300
7E0200
3C0200
000200
000600
000400
000400
000400
000C00
ENDCHAR
STARTCHAR C109
ENCODING 109
SWIDTH 547 0
DWIDTH 19 0
BBX 20 22 5 0
BITMAP
FFFFF0
300180
700100
600100
600100
200300
100200
180200
0C0200
060600
020400
030400
3B0400
7F0C00
7FC800
7CE800
386800
003800
003000
001000
001000
003000
ENDCHAR
STARTCHAR C110
ENCODING 110
SWIDTH 518 0
DWIDTH 18 0
BBX 19 22 5 0
BITMAP
FFFFE0
000300
000200
000200
000200
000600
000400
000400
000400
3E0C00
7F0800
F98800
F8C800
F05800
607000
003000
003000
003000
002000
002000
002000
006000
ENDCHAR
STARTCHAR C111
ENCODING 111
SWIDTH 662 0
DWIDTH 23 0
BBX 22 31 5 1
BITMAP
001800
001000
002000
002000
002000
003800
001F80
0007F0
000078
00000C
003F04
00FF84
01C0C4
478048
4F8058
CF80F0
8F01E0
803BC0
807F80
807E00
807C00
803E00
800200
800200
800200
400600
400400
200C00
303800
1FF000
0FC000
ENDCHAR
STARTCHAR C112
ENCODING 112
SWIDTH 604 0
DWIDTH 21 0
BBX 21 22 6 0
BITMAP
000078
07C0C0
1C3080
700880
F01C80
083B80
04F300
05C100
078100
0E0300
3C0200
300200
000200
000600
000400
000400
000400
000C00
000800
000800
000800
001800
ENDCHAR
STARTCHAR C113
ENCODING 113
SWIDTH 604 0
DWIDTH 21 0
BBX 17 23 5 1
BITMAP
000700
001F80
083880
086080
044180
46CF00
43FE00
C1F000
810000
810200
830700
820F00
823900
83F100
81C100
800100
400300
400200
400600
200C00
303800
1FF000
0FC000
ENDCHAR
STARTCHAR C114
ENCODING 114
SWIDTH 518 0
DWIDTH 18 0
BBX 20 23 4 -1
BITMAP
7FFFF0
000180
000100
000300
000F00
003300
00C200
030200
0C0200
380600
600400
E00400
300400
1C0C00
060800
030800
018800
00D800
005000
3C7000
7C3000
7C3000
780000
ENDCHAR
STARTCHAR C115
ENCODING 115
SWIDTH 604 0
DWIDTH 21 0
BBX 22 22 5 0
BITMAP
FFFFFC
3C0060
060040
030040
010040
0180C0
008080
00B880
00FC80
01E780
038300
078100
8E0100
FC0300
780200
000200
000200
000600
000400
000400
000400
000C00
ENDCHAR
STARTCHAR C116
ENCODING 116
SWIDTH 604 0
DWIDTH 21 0
BBX 22 21 5 1
BITMAP
FFFFFC
000000
000000
400000
400000
C07C00
80FE00
81FB00
C1F980
41F080
40E080
400080
400080
400180
600100
200300
200600
300C00
1C3800
0FF000
03C000
ENDCHAR
STARTCHAR C117
ENCODING 117
SWIDTH 0 0
DWIDTH 0 0
BBX 13 12 -11 -11
BITMAP
0100
3D00
7F00
C300
8380
8680
FC40
7860
0030
0010
0008
0008
ENDCHAR
STARTCHAR C118
ENCODING 118
SWIDTH 633 0
DWIDTH 22 0
BBX 23 21 5 1
BITMAP
FFFFFE
000000
000000
400000
C00000
80C000
81E000
83E080
83E180
83C740
81FE40
80F840
800040
400040
4000C0
400080
200180
300300
1C1E00
0FF800
03E000
ENDCHAR
STARTCHAR C119
ENCODING 119
SWIDTH 0 0
DWIDTH 0 0
BBX 12 9 -2 24
BITMAP
0700
8F00
8F10
8E10
8030
8060
C1C0
7F80
3E00
ENDCHAR
STARTCHAR C120
ENCODING 120
SWIDTH 518 0
DWIDTH 18 0
BBX 19 22 5 0
BITMAP
0381E0
078300
0F0200
080200
081E00
047600
038400
060400
0C0400
300C00
600800
E00800
380800
0C1800
061000
031000
019000
00B000
00E000
006000
006000
006000
ENDCHAR
STARTCHAR C121
ENCODING 121
SWIDTH 547 0
DWIDTH 19 0
BBX 20 23 5 -1
BITMAP
FFFFF0
780180
1C0100
060100
030100
010300
018200
038200
0F0200
1C0600
380400
F00400
E00400
B80C00
0E0800
030800
018800
00D800
005000
1C7000
3C3000
3C3000
380000
ENDCHAR
STARTCHAR C122
ENCODING 122
SWIDTH 576 0
DWIDTH 20 0
BBX 20 22 6 0
BITMAP
0F80F0
384180
602100
702100
706100
604300
00C200
018200
070200
1C0600
700400
E00400
780400
060C00
010800
008800
004800
001800
003000
001000
001000
003000
ENDCHAR
STARTCHAR C123
ENCODING 123
SWIDTH 604 0
DWIDTH 21 0
BBX 22 1 2 10
BITMAP
FFFFFC
ENDCHAR
STARTCHAR C124
ENCODING 124
SWIDTH 1094 0
DWIDTH 38 0
BBX 39 1 2 10
BITMAP
FFFFFFFFFE
ENDCHAR
STARTCHAR C125
ENCODING 125
SWIDTH 489 0
DWIDTH 17 0
BBX 20 25 3 -3
BITMAP
3FFFF0
010000
00F800
03FC00
078400
0F0600
0E0600
000E00
000C00
001C00
183800
1FF000
07C000
010000
00C000
002000
3C1000
7ED800
43F400
F13000
F11000
F03000
E02000
002000
002000
ENDCHAR
STARTCHAR C126
ENCODING 126
SWIDTH 633 0
DWIDTH 22 0
BBX 20 7 4 7
BITMAP
0F0000
1F8000
7FC030
60F0E0
807FC0
003F80
001E00
ENDCHAR
STARTCHAR C127
ENCODING 127
SWIDTH 979 0
DWIDTH 34 0
BBX 35 27 5 -4
BITMAP
0000000100
FFFFE3C1E0
00200FE300
00203C3200
0020701200
0020E00A00
0061F00E00
0041F80400
0043080400
00478C0400
00DC8C0C00
80F88C0800
80E09C0800
8000B80800
8000901800
C001801000
4001001000
4003001000
6006003000
381C002000
1FF8002000
07E0002000
0000006000
0380000000
0780000000
0780000000
0700000000
ENDCHAR
STARTCHAR C128
ENCODING 128
SWIDTH 691 0
DWIDTH 24 0
BBX 25 23 5 -1
BITMAP
FFFFFF80
00010000
00078000
003FE000
00FA7000
03C21800
0F061800
3C047800
7004F800
603EF000
30FFE000
1BC98000
0F08C000
3C08C000
3C18C000
0E13C000
03178000
01978000
00F70000
00E00000
00600000
00600000
00200000
ENDCHAR
STARTCHAR C129
ENCODING 129
SWIDTH 547 0
DWIDTH 19 0
BBX 20 32 5 -1
BITMAP
200000
180000
070000
00F800
000700
000080
000040
000040
000040
FFFFF0
003000
006000
01F800
07BC00
1E6600
384600
E04E00
785E00
1CDC00
069800
038000
018000
018000
07B800
0F7800
187800
307800
201000
203000
10E000
1FC000
0F0000
ENDCHAR
STARTCHAR C130
ENCODING 130
SWIDTH 748 0
DWIDTH 26 0
BBX 27 21 5 1
BITMAP
FFFFFFE0
00000000
00000000
007E0000
03FF0000
07810000
4E01F800
DE038C00
9E061C00
9C7E3C00
80FC7C00
80F87C00
80F87800
80043000
80040000
40040000
400C0000
20180000
30700000
1FE00000
0F800000
ENDCHAR
STARTCHAR C131
ENCODING 131
SWIDTH 691 0
DWIDTH 24 0
BBX 25 23 5 -1
BITMAP
FFFFFF80
00010000
0007C000
003FE000
00FA3000
03C21800
0F061800
3C041800
70041800
603C7800
30FCF000
1BC8F000
0F08E000
3C080000
3C180000
0E100000
03100000
01900000
00F00000
00E00000
00600000
00600000
00200000
ENDCHAR
STARTCHAR C132
ENCODING 132
SWIDTH 691 0
DWIDTH 24 0
BBX 25 23 5 -1
BITMAP
FFFFFF80
00100C00
00300800
01FC0800
0FFE0800
3E231800
70231000
F8271000
1C6F1000
064F3000
034E2000
01C02000
01C02000
00C06000
01F04000
03FC4000
03EE4000
03C3C000
01818000
00018000
00008000
00018000
00010000
ENDCHAR
STARTCHAR C133
ENCODING 133
SWIDTH 835 0
DWIDTH 29 0
BBX 31 23 4 -1
BITMAP
7FFFFFFE
00000000
0003C000
000FE000
003C3000
00703000
00E07F80
00C078C0
21F061C0
61F863C0
41F8E7C0
C1F8C7C0
80F0C780
8000C300
8001C000
80018000
80018000
C0018000
7FFB8000
3FFF0000
00070000
00030000
00030000
ENDCHAR
STARTCHAR C134
ENCODING 134
SWIDTH 633 0
DWIDTH 22 0
BBX 25 22 3 0
BITMAP
3FFFFF80
00008000
00038000
000FC000
003DE000
00F13000
03C11800
07C37800
00E2F800
0032F000
001AE000
000E0000
000C0000
000C0000
3EE40000
7FFC0000
41180000
F1080000
F0080000
F0180000
E0100000
00100000
ENDCHAR
STARTCHAR C135
ENCODING 135
SWIDTH 806 0
DWIDTH 28 0
BBX 29 22 5 0
BITMAP
FFFFFFF8
18084000
18184000
18104000
7F10C000
FF98A000
F8CFFC00
F867DE00
70618300
00610100
00611D00
00C13F00
07833E00
0FE23E00
0FF21C00
0F9A0000
071E0000
000C0000
000C0000
000C0000
000C0000
00080000
ENDCHAR
STARTCHAR C136
ENCODING 136
SWIDTH 748 0
DWIDTH 26 0
BBX 27 25 5 -3
BITMAP
FFFFFFE0
18108000
18318000
18210000
3F310000
7F9FF000
7CCFF800
7CC20C00
38C20400
00C27400
0186FC00
0F84F800
1FC4F800
1FE47000
1F3C0000
0E180000
00180000
3F180000
7F980000
7CD80000
7C700000
38300000
00300000
00200000
00200000
ENDCHAR
STARTCHAR C137
ENCODING 137
SWIDTH 835 0
DWIDTH 29 0
BBX 30 28 5 -6
BITMAP
FFFFFFFC
18108040
18308040
18208040
3F318040
7F9FF0C0
7CCFF880
7CC10C80
38C30480
00C23D80
01827D00
0F827D00
1FC67D00
1FE43B00
1F340200
0E1C0200
001C0200
001C0600
00FC0400
01FF8400
01FBC400
01F06C00
00E03800
00001800
00001800
00001800
00001000
00001000
ENDCHAR
STARTCHAR C138
ENCODING 138
SWIDTH 662 0
DWIDTH 23 0
BBX 24 22 5 0
BITMAP
FFFFFF
001018
003010
01FC10
07FE10
1E2330
382320
606F20
785E20
1C5E60
065C40
03DC40
03FE40
01E3C0
01C180
478080
7E0080
380180
000100
000100
000100
000300
ENDCHAR
STARTCHAR C139
ENCODING 139
SWIDTH 633 0
DWIDTH 22 0
BBX 22 24 6 -1
BITMAP
000200
03C3FC
1FE200
3C3200
701E00
F80C00
FC0C00
440400
060C00
060800
0E0800
1C0800
081F00
00FF00
03F100
071300
1C3200
1E2200
032600
01A400
01E400
00C400
00C400
004000
ENDCHAR
STARTCHAR C140
ENCODING 140
SWIDTH 547 0
DWIDTH 19 0
BBX 20 24 5 -1
BITMAP
000080
03F0F0
1FF980
3C0D00
700500
7C0700
7E0300
020200
030200
030200
070600
0E0400
040400
000400
1E0C00
7F8800
F9C800
F86800
F83800
703000
001000
001000
003000
002000
ENDCHAR
STARTCHAR C141
ENCODING 141
SWIDTH 547 0
DWIDTH 19 0
BBX 19 24 6 -1
BITMAP
000100
07E1E0
3FF300
781A00
E00A00
F80E00
FC0600
040400
060400
060400
0E0C00
1C0800
080800
007800
01F800
079000
1E1000
1E1000
073000
01A000
00E000
006000
006000
002000
ENDCHAR
STARTCHAR C142
ENCODING 142
SWIDTH 691 0
DWIDTH 24 0
BBX 25 24 5 -1
BITMAP
00008000
03F0FF80
0FF98800
3C0D0800
70050800
FC070800
FE031800
42021000
03021000
03021000
07063000
0E042000
0C042000
00042000
00046000
003C4000
007E4000
00FF4000
00F9C000
00718000
00008000
00008000
00018000
00010000
ENDCHAR
STARTCHAR C143
ENCODING 143
SWIDTH 576 0
DWIDTH 20 0
BBX 22 23 4 0
BITMAP
000020
00FC3C
03FE60
0F0340
1C0140
1F01C0
1F80C0
108080
00C080
00C080
01C180
038100
010100
000100
1E3B00
3F7A00
61C600
F08600
F08600
F00400
E00400
000400
000C00
ENDCHAR
STARTCHAR C144
ENCODING 144
SWIDTH 518 0
DWIDTH 18 0
BBX 19 25 5 -3
BITMAP
FFFFE0
1C0300
380200
700200
600200
608600
3FC400
1F8400
0E0400
1C0C00
780800
3C0800
0F0800
039800
00D000
1E7000
3F3000
7DB000
FCB000
F8E000
706000
006000
004000
004000
004000
ENDCHAR
STARTCHAR C145
ENCODING 145
SWIDTH 604 0
DWIDTH 21 0
BBX 22 23 5 -1
BITMAP
FFFFFC
001818
000810
1F8C30
3FC660
7863C0
783000
701000
001000
003800
01FC00
07F600
1E2300
782300
E02300
786F00
1C5F00
065E00
035C00
03C000
018000
018000
008000
ENDCHAR
STARTCHAR C146
ENCODING 146
SWIDTH 1209 0
DWIDTH 42 0
BBX 41 24 7 0
BITMAP
003800000000
007C00000000
20C7FFFFFF80
318C80860000
1938C1840000
8FF0C1040000
87C3F1040000
8207F98C0000
8617CCFFC000
843FC67FE000
84EB86083000
87C806181000
83080611D000
80080C13F000
80187C13E000
4010FE33E000
4030FF21C000
20E0F9A00000
3FC071A00000
1F0000E00000
000000C00000
000000C00000
000000C00000
000000C00000
ENDCHAR
STARTCHAR C147
ENCODING 147
SWIDTH 806 0
DWIDTH 28 0
BBX 29 23 5 0
BITMAP
000E0040
F83F0078
0C7100C0
26470080
23FE0080
21F80080
21840180
210C0100
211F0100
21F38100
21E2C300
20064200
10044200
100CC200
08398600
0FF30400
07C60400
000E0400
00038C00
0000C800
00006800
00003800
00001800
ENDCHAR
STARTCHAR C148
ENCODING 148
SWIDTH 576 0
DWIDTH 20 0
BBX 23 23 3 -1
BITMAP
3FFFFE
0C1010
041810
020830
0F8C60
1FC7E0
1E40F0
1C63E0
0067C0
007FC0
00F980
00F380
01C300
038300
0F0300
FC0700
700600
000600
000600
000600
000600
000600
000200
ENDCHAR
STARTCHAR C149
ENCODING 149
SWIDTH 892 0
DWIDTH 31 0
BBX 31 25 6 -1
BITMAP
00380000
007C0000
00C7FFFE
118D8020
193B8020
4FF70020
C7C60020
82060060
860E0840
841FF840
8475F840
87E4F0C0
8385C080
800F8080
800F0080
401E0180
40378100
20E1C100
3FC06100
1F003300
00001A00
00000A00
00000600
00000600
00000200
ENDCHAR
STARTCHAR C150
ENCODING 150
SWIDTH 633 0
DWIDTH 22 0
BBX 22 24 6 -1
BITMAP
003800
00FFFC
11C440
191C40
4FF840
C7E040
8610C0
843080
847880
87C880
478980
401900
401100
203100
30E300
1FC200
0FC200
07F200
0FFE00
0F8C00
070C00
000400
000C00
000800
ENDCHAR
STARTCHAR C151
ENCODING 151
SWIDTH 748 0
DWIDTH 26 0
BBX 27 22 5 0
BITMAP
FFFFFFE0
10080000
10080000
30180000
28180000
2E140000
27D60000
61F3C000
4061F800
40E03800
40A00800
C1E00800
83401800
8E401000
9C403000
F0C06000
6080C000
00838000
00870000
009C0000
00F80000
00600000
ENDCHAR
STARTCHAR C152
ENCODING 152
SWIDTH 748 0
DWIDTH 26 0
BBX 27 23 5 -1
BITMAP
FFFFFFE0
10180000
10180000
30180000
283C0000
2E37F000
27F3F800
61F1CC00
40738C00
40E71C00
40FE1800
C1B83800
83007000
8E01E000
9C3F8000
F01E0000
600C0000
00060000
00030000
00018000
00008000
00004000
00006000
ENDCHAR
STARTCHAR C153
ENCODING 153
SWIDTH 720 0
DWIDTH 25 0
BBX 26 26 5 -4
BITMAP
FFFFFFC0
10100000
30180000
28380000
2E380000
27BFE000
61F7F000
40F19800
40E39800
C1E73800
837E3000
8E387000
9C01E000
F03F8000
601E0000
000C0000
00060000
00030000
00018000
000FC000
007F4000
00F10000
003B0000
000E0000
00060000
00020000
ENDCHAR
STARTCHAR C154
ENCODING 154
SWIDTH 633 0
DWIDTH 22 0
BBX 24 23 4 -1
BITMAP
7FFFFF
040000
040000
0E0000
0BC000
09E000
082000
186000
10C000
11E380
17F7C0
1F3C40
4E3840
4E7180
DE6380
8C6380
806080
80F100
80DF00
FECE00
7FC000
01C000
008000
ENDCHAR
STARTCHAR C155
ENCODING 155
SWIDTH 950 0
DWIDTH 33 0
BBX 34 22 5 0
BITMAP
FFFFFFFFC0
0180000000
0380000000
06E0000000
4C7FF00000
481FF00000
4840700000
4FE0D80000
47B18FF000
603307F000
2032003000
3072182000
1FD3FC6000
0F91E44000
0010044000
001804C000
00080C8000
000C188000
0007F08000
0003E08000
0000018000
0000010000
ENDCHAR
STARTCHAR C156
ENCODING 156
SWIDTH 950 0
DWIDTH 33 0
BBX 34 27 5 -5
BITMAP
FFFFFFFFC0
0180000000
0380000000
06E0000000
4C7FF00000
481FF00000
4840700000
4FE0D00000
47B1981800
60330FF800
203207F800
3072181000
1FD3FC3000
0F91E42000
0010042000
0018046000
00080C4000
000C184000
0007F1C000
0003E78000
00001C8000
0000308000
0000608000
0000788000
00000F8000
0000030000
0000010000
ENDCHAR
STARTCHAR C157
ENCODING 157
SWIDTH 1209 0
DWIDTH 42 0
BBX 43 24 5 -1
BITMAP
000000000100
FFFFFFFFC1E0
006000004300
00E000004200
01A00000C200
03100007C200
021C101F8600
460FF0788400
4403F1E08400
440023818400
44186E010C00
47FC7C010800
43E47E010800
4004C7030800
600481821800
200480C31000
300D80631000
1C3900379000
0FF10034B000
03C1001CE000
0001001C6000
0001001C6000
000100180000
000000080000
ENDCHAR
STARTCHAR C158
ENCODING 158
SWIDTH 748 0
DWIDTH 26 0
BBX 27 19 5 3
BITMAP
FFFFFFE0
00E00000
01E00000
03300000
06103C00
04107E00
CC18C200
880B8200
880B0200
8C3C3C00
87FC7C00
83CC7800
80040800
C0040800
40061000
600FF000
3839E000
1FF00000
07C00000
ENDCHAR
STARTCHAR C159
ENCODING 159
SWIDTH 720 0
DWIDTH 25 0
BBX 26 26 5 -4
BITMAP
FFFFFFC0
00C00000
01C00000
03400000
06200000
04380000
8C1FF800
8807F800
88001800
88301000
8FF83000
87C82000
80086000
C0084000
40084000
6018C000
38738000
1FEE8000
07B88000
00618000
01C10000
01C10000
00710000
001D0000
00070000
00030000
ENDCHAR
STARTCHAR C161
ENCODING 161
SWIDTH 604 0
DWIDTH 21 0
BBX 21 28 3 -5
BITMAP
0000F0
03C3F8
0FEF08
1E3C08
1E3078
1C30F0
0070F0
00F010
03D830
070FE0
1E07C0
383000
707800
60E800
61CC00
3F9C00
1E3800
00F000
7FC000
FF0000
7E0000
0F8000
01C000
007000
003800
000C00
000600
000300
ENDCHAR
STARTCHAR C162
ENCODING 162
SWIDTH 691 0
DWIDTH 24 0
BBX 22 24 5 0
BITMAP
0000F8
0003FC
03C704
0FEC04
1C3804
3C3038
3C6078
3DE070
3BA010
061010
8C1820
980FE0
9007C0
9010C0
907080
9FF980
CF8900
400900
601B00
387200
1FE200
078200
000200
000200
ENDCHAR
STARTCHAR C163
ENCODING 163
SWIDTH 604 0
DWIDTH 21 0
BBX 19 23 5 -1
BITMAP
0071C0
01FFE0
039E20
2739E0
2733C0
6733C0
4633C0
4078C0
406F80
7FE700
3FE000
006000
03C800
0FC800
3C8800
F09800
F09000
399000
0DD000
077000
036000
032000
010000
ENDCHAR
STARTCHAR C164
ENCODING 164
SWIDTH 576 0
DWIDTH 20 0
BBX 23 34 3 -3
BITMAP
0C0000
020000
018000
007F00
0000E0
000010
000008
000008
000008
3FFFFE
010000
010000
030000
020000
020000
020000
0603C0
0407C0
0407C0
040780
0C0180
080100
080300
080600
180C00
101C00
107400
91E400
DF8400
4E0C00
601800
307000
1FE000
0F8000
ENDCHAR
STARTCHAR C165
ENCODING 165
SWIDTH 489 0
DWIDTH 17 0
BBX 19 35 4 -4
BITMAP
200000
100000
0C0000
03F000
000E00
000100
000080
000080
000080
7FFFE0
080000
080000
180000
100000
100000
100000
301C00
203C00
203C00
603800
401800
401000
403000
C06000
80C000
838000
8F2000
FDE000
77C000
0E4000
1E4000
03C000
018000
018000
008000
ENDCHAR
STARTCHAR C166
ENCODING 166
SWIDTH 892 0
DWIDTH 31 0
BBX 32 21 5 1
BITMAP
FFFFFFFF
01000800
01000800
01001800
03201000
02701000
02F01080
43903080
431023C0
40102740
60303C40
20603840
31E00040
1FA00040
0E3000C0
00100080
00100180
00180300
000C0E00
0007FC00
0003F000
ENDCHAR
STARTCHAR C167
ENCODING 167
SWIDTH 777 0
DWIDTH 27 0
BBX 27 31 6 0
BITMAP
00800000
00600000
001C0000
0003F000
00000E00
00000100
00000080
00000080
00000080
078FFFE0
1FC80000
38780000
70380000
F0300000
F0100000
F0300000
E0300000
00303C00
00207C00
00607C00
00607800
00601800
00403000
00402000
00406000
00C0C000
00818000
00870000
008E0000
00F80000
00700000
ENDCHAR
STARTCHAR C168
ENCODING 168
SWIDTH 604 0
DWIDTH 21 0
BBX 16 33 6 1
BITMAP
000C
001C
0018
0038
0030
0030
0070
0060
0060
0060
0060
07E0
1FE0
3870
7830
7838
7878
7064
00E6
00C2
01C3
0183
0383
0703
0E07
1C0E
780C
E01C
C038
4070
61E0
3F80
1E00
ENDCHAR
STARTCHAR C169
ENCODING 169
SWIDTH 633 0
DWIDTH 22 0
BBX 17 21 6 1
BITMAP
038300
0FC700
1C4C80
BC2880
BC3880
B81180
800100
800300
803A00
807E00
807C00
807E00
803A00
800100
400100
400100
400300
200600
381C00
1FF800
07E000
ENDCHAR
STARTCHAR C170
ENCODING 170
SWIDTH 518 0
DWIDTH 18 0
BBX 20 23 4 0
BITMAP
000080
01F0F0
07F980
0E0D00
1C0700
1E0300
3E0300
3E0200
1C0200
000200
000600
078400
1FC400
386400
702C00
E01800
F01800
F00800
F01800
E01000
001000
001000
003000
ENDCHAR
STARTCHAR C171
ENCODING 171
SWIDTH 633 0
DWIDTH 22 0
BBX 22 24 6 -1
BITMAP
000400
078FFC
1FC860
386840
703840
781840
F810C0
F81080
F01080
003080
002180
002100
002100
002100
01E300
03F200
07FA00
07CE00
038600
000400
000400
000400
000C00
000800
ENDCHAR
STARTCHAR C172
ENCODING 172
SWIDTH 576 0
DWIDTH 20 0
BBX 21 21 5 1
BITMAP
FFFFF8
000000
000000
007E00
01FF00
038100
4E0100
5E0300
5E0200
5C7E00
40FC00
40F800
40F800
400400
400400
400400
200C00
201800
107000
1FE000
0F8000
ENDCHAR
STARTCHAR C173
ENCODING 173
SWIDTH 547 0
DWIDTH 19 0
BBX 20 25 5 -3
BITMAP
FFFFF0
000000
007E00
03FF00
078100
4E0100
5E0300
5E7600
5CFC00
40F800
40F800
40E400
200400
200400
100C00
183800
0FF000
07F000
07E000
0F2000
1E2000
036000
01C000
00C000
00C000
ENDCHAR
STARTCHAR C174
ENCODING 174
SWIDTH 604 0
DWIDTH 21 0
BBX 20 22 7 0
BITMAP
3C00F0
626180
C2D100
E39100
E31100
C11300
003200
006200
01C200
070600
3C0400
E00400
780400
060C00
010800
008800
004800
001800
003000
001000
001000
003000
ENDCHAR
STARTCHAR C175
ENCODING 175
SWIDTH 576 0
DWIDTH 20 0
BBX 21 23 5 -1
BITMAP
FFFFF8
000000
403E00
607F00
20FD80
20F880
307080
100080
180180
080100
0C0300
070600
03FC00
00FC00
3F8800
7FC800
7C6800
7C3800
383000
001000
001000
003000
002000
ENDCHAR
STARTCHAR C176
ENCODING 176
SWIDTH 604 0
DWIDTH 21 0
BBX 22 23 5 -1
BITMAP
FFFFFC
000000
401F00
603F80
207CC0
207C40
307840
103040
180040
0800C0
0C0080
060180
038700
01FE00
00FC00
03E400
070C00
078800
01C800
006800
003800
003000
001000
ENDCHAR
STARTCHAR C177
ENCODING 177
SWIDTH 748 0
DWIDTH 26 0
BBX 27 23 5 -1
BITMAP
FFFFFFE0
00000300
403F0200
607F8200
207CC200
307C4600
10384400
18004400
0800C400
0C008C00
06018800
03830800
01FE0800
007C1800
00FC1000
01FF1000
01FB9000
01F0F000
00E06000
00006000
00002000
00006000
00004000
ENDCHAR
STARTCHAR C178
ENCODING 178
SWIDTH 662 0
DWIDTH 23 0
BBX 25 23 4 -1
BITMAP
7FFFFF80
00000000
0001E000
0007F000
001E1800
00381800
00703800
00603000
30F03000
20F83000
60F83000
40F87000
C0706000
80006000
80006000
8000E000
8000C000
C000C000
7FF0C000
3FFFC000
000F8000
00018000
00008000
ENDCHAR
STARTCHAR C179
ENCODING 179
SWIDTH 806 0
DWIDTH 28 0
BBX 30 23 4 -1
BITMAP
7FFFFFFC
00000000
00078000
001FC000
00386000
007063C0
00E067E0
00C0E7E0
21E0C7A0
21F0C020
61F0C060
41F1C0C0
C0E1E380
8001BE00
80018000
80018000
80038000
C0030000
7FC30000
3FFF0000
003F0000
00060000
00020000
ENDCHAR
STARTCHAR C180
ENCODING 180
SWIDTH 864 0
DWIDTH 30 0
BBX 32 24 4 -1
BITMAP
00000008
7FFC3E0F
0800FF18
1003C190
100700D0
10060050
100FC070
201FE020
20782020
21D03020
23303060
66207040
5C60E040
7040C040
604000C0
C0C00080
00800080
00800080
01800180
01000100
01000100
01000100
01000300
00000200
ENDCHAR
STARTCHAR C181
ENCODING 181
SWIDTH 835 0
DWIDTH 29 0
BBX 31 23 4 -1
BITMAP
7FFFFFFE
18038030
10070020
10060020
100E0020
300C0060
201C0840
2077F840
21F3F840
6320E0C0
4621C080
5C638080
70470080
E0CE0180
C0C78100
0081C100
00806100
01803300
01001A00
01000A00
01000600
01000600
00000200
ENDCHAR
STARTCHAR C182
ENCODING 182
SWIDTH 576 0
DWIDTH 20 0
BBX 21 22 5 0
BITMAP
FFFFF8
200000
200000
200000
61C000
478000
5D8100
710700
E10E00
C31E00
027400
02C400
028C00
078800
070800
020800
001800
001000
001000
001000
003000
002000
ENDCHAR
STARTCHAR C183
ENCODING 183
SWIDTH 604 0
DWIDTH 21 0
BBX 22 23 5 -1
BITMAP
FFFFFC
100000
300000
200000
200000
200000
607000
43D800
4E1800
781F00
E0FF80
C3F100
0F3100
1C2300
302200
3C2200
0E6200
034600
01C400
01C400
00C400
00C400
004000
ENDCHAR
STARTCHAR C184
ENCODING 184
SWIDTH 518 0
DWIDTH 18 0
BBX 19 23 5 -1
BITMAP
FFFFE0
100000
300000
200000
200000
200000
607800
41CC00
470400
5C0C00
F07800
C1F800
078800
0E1800
381000
3E1000
071000
01B000
00E000
00E000
006000
006000
002000
ENDCHAR
STARTCHAR C185
ENCODING 185
SWIDTH 604 0
DWIDTH 21 0
BBX 22 23 5 -1
BITMAP
FFFFFC
100000
100000
100000
30E000
23E000
264000
3C4000
70C000
608000
008000
878000
8F8C00
8FBC00
8FF200
8FC200
800200
400600
400400
600C00
383800
1FF000
07C000
ENDCHAR
STARTCHAR C186
ENCODING 186
SWIDTH 604 0
DWIDTH 21 0
BBX 23 23 4 -1
BITMAP
7FFFFE
080000
080000
080000
187000
11F000
132000
1E2000
386000
304000
004000
03C300
07C780
47CC80
C7F980
87F100
83C100
800100
C00300
7FFE00
3FFE00
000600
000400
ENDCHAR
STARTCHAR C187
ENCODING 187
SWIDTH 547 0
DWIDTH 19 0
BBX 21 23 4 -1
BITMAP
7FFFF8
1000C0
100080
300080
200080
203980
20F100
63B100
462100
5C6300
704200
E04200
C0C200
008600
008400
078400
0FE400
0FFC00
0F9800
071800
000800
001800
001000
ENDCHAR
STARTCHAR C188
ENCODING 188
SWIDTH 489 0
DWIDTH 17 0
BBX 21 26 2 -3
BITMAP
007000
00F078
0170C0
016180
010F80
00FE80
00F180
01C100
070100
0F8100
01C300
006200
003200
001A00
001E00
000C00
1F0C00
3FC400
7CEC00
FC2800
F83800
701800
001800
001000
001000
001000
ENDCHAR
STARTCHAR C189
ENCODING 189
SWIDTH 921 0
DWIDTH 32 0
BBX 33 24 5 -1
BITMAP
0780000000
0B81FFFF80
1381000C00
1301000800
1007001800
101F00F800
087A03F800
07E20F1000
07823C1000
1E06701000
3805C03000
E007802000
F807C02000
1C0CE02000
0608306000
0308184000
01880C4000
00D8064000
00D006C000
0070038000
0030018000
0030018000
0030018000
0010008000
ENDCHAR
STARTCHAR C190
ENCODING 190
SWIDTH 777 0
DWIDTH 27 0
BBX 28 31 5 0
BITMAP
00400000
00300000
000E0000
0001F800
00000700
00000080
00000040
00000040
00000040
FFFFFFF0
000C0000
00080000
00080000
00080000
1F180000
3F900000
7CD00000
FC501E00
F8703E00
70203E00
00203C00
00600C00
00600800
00401800
00403000
00C06000
0080C000
00838000
008F0000
00FC0000
00700000
ENDCHAR
STARTCHAR C191
ENCODING 191
SWIDTH 633 0
DWIDTH 22 0
BBX 23 21 5 1
BITMAP
FFFFFE
003000
003000
1E3000
7F2000
F1E000
F0E100
F06300
E04780
00DC80
80F880
80E080
800080
800080
800180
C00100
400300
600600
381C00
1FF800
07E000
ENDCHAR
STARTCHAR C192
ENCODING 192
SWIDTH 604 0
DWIDTH 21 0
BBX 22 23 5 -1
BITMAP
FFFFFC
000040
000040
000040
000040
0F00C0
1F8080
9FC080
9F6180
8E3F00
C03E00
407E00
40FF00
40FD00
60F900
207100
200100
300300
100200
180600
0E1C00
07F800
01E000
ENDCHAR
STARTCHAR C193
ENCODING 193
SWIDTH 604 0
DWIDTH 21 0
BBX 22 25 5 -3
BITMAP
FFFFFC
000100
000100
000100
3C0100
7E0300
7F0200
7D8600
38FC00
007E00
03FF00
478100
4E0100
5E0300
5E7E00
5CFC00
40F800
40F800
400400
200400
200400
100C00
183800
0FF000
07C000
ENDCHAR
STARTCHAR C194
ENCODING 194
SWIDTH 604 0
DWIDTH 21 0
BBX 22 26 5 -4
BITMAP
FFFFFC
000040
000040
000040
0F0040
1F80C0
9FC080
DF6180
4E3F00
403E00
607E00
207F00
307D00
103900
180100
0C0300
070E00
03FC00
00F800
007C00
01F800
03C800
007800
003000
003000
001000
ENDCHAR
STARTCHAR C195
ENCODING 195
SWIDTH 604 0
DWIDTH 21 0
BBX 23 25 4 -3
BITMAP
7FFFFE
000020
000020
000020
078020
0FC060
0FE040
0FB0C0
071F80
007F80
00F0C0
01C0C0
0381C0
63E180
43E180
C3E180
81C380
800300
800300
800700
C00600
7FFE00
3FFE00
000600
000400
ENDCHAR
STARTCHAR C196
ENCODING 196
SWIDTH 604 0
DWIDTH 21 0
BBX 22 25 5 -3
BITMAP
FFFFFC
000100
000100
000100
3C0100
7E0300
7F0200
7D8600
38FC00
01FE00
03C300
078300
070300
000700
000E00
081C00
0FF800
07E000
010000
00C000
002000
001000
000800
000400
000200
ENDCHAR
STARTCHAR C197
ENCODING 197
SWIDTH 691 0
DWIDTH 24 0
BBX 26 22 4 0
BITMAP
7FFFFFC0
000C0000
00080000
00080000
00080000
1F180000
3F900C00
7CD03C00
FC506C00
F871C800
70331800
00261000
003C3000
00302000
00602000
00006000
00004000
00004000
00004000
00004000
0000C000
00008000
ENDCHAR
STARTCHAR C198
ENCODING 198
SWIDTH 604 0
DWIDTH 21 0
BBX 22 23 5 -1
BITMAP
FFFFFC
000600
000400
000400
1F8400
3FCC00
7C6800
7C2800
7C3800
381C00
003F80
00F300
03D100
0F3300
3C2200
3C2200
062200
036600
01C400
01C400
00C400
00C400
008000
ENDCHAR
STARTCHAR C199
ENCODING 199
SWIDTH 518 0
DWIDTH 18 0
BBX 21 23 3 -1
BITMAP
3FFFF8
000080
000080
000080
000080
07C180
1FF100
3E3900
3E0D00
3E0700
1C0600
000200
000200
1F0600
7FC400
F8E400
F83400
F81C00
701800
000800
000800
001800
001000
ENDCHAR
STARTCHAR C200
ENCODING 200
SWIDTH 547 0
DWIDTH 19 0
BBX 20 23 5 -1
BITMAP
FFFFF0
000100
000100
000100
000100
1F8300
7FE200
F87200
F81A00
F80E00
700C00
000400
003C00
00FC00
03C800
0F0800
0F0800
039800
00D000
007000
003000
003000
001000
ENDCHAR
STARTCHAR C201
ENCODING 201
SWIDTH 633 0
DWIDTH 22 0
BBX 23 23 5 -1
BITMAP
FFFFFE
000630
000420
000420
7F0C20
FFC860
F8E840
F83840
701840
0010C0
001080
001080
001080
00F180
01F900
03FD00
03E500
01C700
000200
000200
000200
000600
000400
ENDCHAR
STARTCHAR C202
ENCODING 202
SWIDTH 691 0
DWIDTH 24 0
BBX 25 22 5 0
BITMAP
FFFFFF80
07C00C00
00600800
00200800
00300800
00101800
00101000
3E101000
7F101000
F19F3000
E09FA000
00F8E000
00E06000
61C06000
63804000
3F004000
1C004000
0000C000
00008000
00008000
00008000
00018000
ENDCHAR
STARTCHAR C203
ENCODING 203
SWIDTH 806 0
DWIDTH 28 0
BBX 28 31 6 0
BITMAP
00400000
00200000
00180000
0007F800
00000700
00000080
00000040
00000040
00000040
0007FFF0
000C0000
1F8C0000
70480000
E0E80000
13D80000
17180000
1E180000
38101E00
30103E00
00103E00
00303C00
00200C00
00201800
00201000
00203000
00606000
0040C000
00438000
00470000
007C0000
00380000
ENDCHAR
STARTCHAR C204
ENCODING 204
SWIDTH 633 0
DWIDTH 22 0
BBX 23 24 5 -1
BITMAP
000020
00007E
03F040
0E0C40
380E40
241DC0
027880
82E080
83C080
870180
9E0100
C01F00
403F00
407F80
607C80
207880
203080
300080
100180
180100
0C0300
070E00
03FC00
00F000
ENDCHAR
STARTCHAR C205
ENCODING 205
SWIDTH 604 0
DWIDTH 21 0
BBX 20 24 7 -1
BITMAP
000080
07E0F0
1C1180
700900
E01900
907D00
08E300
0BC200
0F0200
1E0200
380600
700400
000400
000400
1F0C00
7F8800
F8C800
F86800
F83800
703000
001000
001000
003000
002000
ENDCHAR
STARTCHAR C206
ENCODING 206
SWIDTH 604 0
DWIDTH 21 0
BBX 23 24 4 -1
BITMAP
000010
00001E
01F830
0F0620
1C0720
120EA0
013C60
017040
01E040
038040
0F00C0
000080
000080
000080
0FC180
783100
E03900
907500
09E300
0B8200
0F0200
1C0200
780600
000400
ENDCHAR
STARTCHAR C207
ENCODING 207
SWIDTH 604 0
DWIDTH 21 0
BBX 22 23 5 0
BITMAP
000020
01F83C
070460
1C0240
380640
241F40
0238C0
02F080
03C080
078080
0E0180
1C0100
000100
1E0100
3F3B00
617E00
40C600
F88600
F80600
F80400
F00400
000400
000C00
ENDCHAR
STARTCHAR C208
ENCODING 208
SWIDTH 691 0
DWIDTH 24 0
BBX 25 22 5 0
BITMAP
FFFFFF80
07C00C00
00600800
00200800
00300800
1E101800
71101000
63901000
1F901000
1C1F3000
381FA000
3078E000
00E06000
61C06000
63804000
3F004000
1C004000
0000C000
00008000
00008000
00008000
00018000
ENDCHAR
STARTCHAR C209
ENCODING 209
SWIDTH 691 0
DWIDTH 24 0
BBX 27 24 3 -2
BITMAP
3FFFFFE0
01C00000
00600000
00307800
00107C00
00384600
0070C200
00E08200
01C08200
03808600
01E19C00
00713C00
00193C00
000D3800
00070000
3E360000
7F7A0000
41CE0000
B8860000
F8040000
F8040000
70040000
000C0000
00080000
ENDCHAR
STARTCHAR C210
ENCODING 210
SWIDTH 691 0
DWIDTH 24 0
BBX 25 22 5 0
BITMAP
FFFFFF80
00400000
01C00000
07C00000
1EF00000
788FF800
78801800
8C801800
87983000
87783000
83EC6000
83846000
80044000
80044000
C00CC000
60188000
38308000
1FE08000
07C08000
00008000
00008000
00008000
ENDCHAR
STARTCHAR C211
ENCODING 211
SWIDTH 633 0
DWIDTH 22 0
BBX 23 22 5 0
BITMAP
FFFFFE
002000
002000
01E000
07C000
1E4000
784060
E0C1E0
F88360
1C8E40
0698C0
03B080
036180
03C100
018100
000300
000200
000200
000200
000200
000600
000400
ENDCHAR
STARTCHAR C212
ENCODING 212
SWIDTH 633 0
DWIDTH 22 0
BBX 23 23 5 -1
BITMAP
FFFFFE
000200
001E00
007E00
03E400
0F8400
3C0400
700E00
601FC0
30F9C0
33E8C0
1F1880
1C1080
301180
3C1100
0E3100
032100
01A300
01A200
00E200
00C200
00C200
004000
ENDCHAR
STARTCHAR C213
ENCODING 213
SWIDTH 547 0
DWIDTH 19 0
BBX 20 23 5 -1
BITMAP
FFFFF0
000180
000700
003F00
01F900
0FC300
3E0200
700200
600E00
307E00
1BF400
0F8400
3C0400
700C00
7C0800
0E0800
030800
019800
00D000
007000
007000
003000
002000
ENDCHAR
STARTCHAR C214
ENCODING 214
SWIDTH 547 0
DWIDTH 19 0
BBX 22 22 3 0
BITMAP
3FFFFC
000060
0000C0
0007C0
003F40
00F8C0
03C080
0F0080
07C080
00F180
003900
000D00
000700
0F3F00
3FFE00
70C600
F84600
F84600
F80400
700400
000400
000C00
ENDCHAR
STARTCHAR C215
ENCODING 215
SWIDTH 691 0
DWIDTH 24 0
BBX 25 23 5 -1
BITMAP
FFFFFF80
00000000
00000000
00000000
00000000
00006000
0000E000
21C19000
63E71000
43FE3000
C3F82000
81E02000
80002000
80006000
80004000
80004000
C0004000
6000C000
3FFE8000
1FFF8000
00018000
00018000
00010000
ENDCHAR
STARTCHAR C216
ENCODING 216
SWIDTH 604 0
DWIDTH 21 0
BBX 23 24 4 -2
BITMAP
7FFFFE
000000
00E000
11F080
11F180
11F740
11FE40
10F840
080040
0800C0
040180
070700
03FF00
00F900
000300
3F7200
7FFA00
408E00
F08600
F00400
F00400
E00400
000C00
000800
ENDCHAR
STARTCHAR C217
ENCODING 217
SWIDTH 547 0
DWIDTH 19 0
BBX 21 23 4 -1
BITMAP
7FFFF8
040080
020040
020040
3A0040
7E00C0
7F0080
7D8180
38C300
007F00
003E00
000200
000200
1F0600
7FC400
F8E400
F83400
F81C00
701800
000800
000800
001800
001000
ENDCHAR
STARTCHAR C218
ENCODING 218
SWIDTH 1008 0
DWIDTH 35 0
BBX 36 23 5 0
BITMAP
0000000080
FFFC0F80F0
0804386180
0402E01100
3C03801900
7C03C07900
7E0620E700
7F0C13C200
39F8170200
00F01E0200
0000380600
0000F00400
0000C00400
0000000400
0000000C00
0000000800
0000000800
0000000800
0000001800
0000001000
0000001000
0000001000
0000003000
ENDCHAR
STARTCHAR C219
ENCODING 219
SWIDTH 950 0
DWIDTH 33 0
BBX 34 23 5 -1
BITMAP
FFFFFFFFC0
0802000000
0403000000
0401000000
3C0100F000
7E0300F800
7F03018C00
7D87810400
38FCC10400
0079C10400
0003830C00
0007023800
000E027800
001C027000
0038066000
001E040000
0007840000
0001C40000
00006C0000
0000380000
0000180000
0000180000
0000080000
ENDCHAR
STARTCHAR C220
ENCODING 220
SWIDTH 547 0
DWIDTH 19 0
BBX 20 23 5 -1
BITMAP
FFFFF0
080100
040080
040080
740080
FC0180
FE0100
FB0300
718600
00FE00
007C00
007C00
03F400
0F8C00
1C0800
3E0800
070800
019800
00D000
007000
007000
003000
002000
ENDCHAR
STARTCHAR C221
ENCODING 221
SWIDTH 633 0
DWIDTH 22 0
BBX 23 23 5 -1
BITMAP
FFFFFE
040040
020040
020040
3A0040
7E00C0
7F0080
7D8180
38C300
007E00
873E00
8F8E00
8FBD00
8FF100
87C100
400100
400300
400200
200600
300C00
183800
0FF000
07C000
ENDCHAR
STARTCHAR C222
ENCODING 222
SWIDTH 604 0
DWIDTH 21 0
BBX 23 23 4 -1
BITMAP
7FFFFE
020040
010040
010040
1F0040
3F8040
3FC0C0
3E6180
1C3F00
001E00
038300
27C780
67CC80
C7F880
87F180
83C100
800100
800300
C00200
7FFA00
3FFE00
000600
000400
ENDCHAR
STARTCHAR C223
ENCODING 223
SWIDTH 691 0
DWIDTH 24 0
BBX 25 23 5 -1
BITMAP
FFFFFF80
08008C00
0400C800
04004800
74004800
FE00D800
FF009000
F9819000
70C71000
007E3000
003E2000
00042000
00042000
003C6000
007E4000
007F4000
007DC000
0038C000
00008000
00008000
00008000
00018000
00010000
ENDCHAR
STARTCHAR C224
ENCODING 224
SWIDTH 576 0
DWIDTH 20 0
BBX 22 22 4 0
BITMAP
7FFFFC
020040
020020
020020
1E0020
3F0060
3F8040
3EC0C0
1C6180
003F80
001F00
000100
1E0100
3F3B00
617E00
40C600
F88600
F80600
F80400
F00400
000400
000C00
ENDCHAR
STARTCHAR C225
ENCODING 225
SWIDTH 633 0
DWIDTH 22 0
BBX 23 23 5 -1
BITMAP
FFFFFE
000200
000200
000600
1E3400
3F7400
61CC00
408C00
F08800
F00800
F07C00
E1FE00
079300
1E1180
381180
3C3780
0E2F80
032F00
01AE00
01E000
00C000
00C000
004000
ENDCHAR
STARTCHAR C226
ENCODING 226
SWIDTH 604 0
DWIDTH 21 0
BBX 22 22 5 0
BITMAP
FFFFFC
000040
000040
000040
0F8E40
3FDFC0
707180
402180
B82080
F80180
FBE100
7FF100
3C1900
700B00
600600
F80600
7C0200
040600
060400
060400
0E0400
0C0C00
ENDCHAR
STARTCHAR C227
ENCODING 227
SWIDTH 604 0
DWIDTH 21 0
BBX 22 25 5 -3
BITMAP
FFFFFC
0000C0
000080
078C80
1FDE80
387380
202100
782100
780100
780300
71E200
07F200
0E1F00
5E0D00
DF0500
810100
833F00
467E00
447C00
407A00
200200
300600
1C1C00
0FF800
03E000
ENDCHAR
STARTCHAR C228
ENCODING 228
SWIDTH 806 0
DWIDTH 28 0
BBX 29 31 5 0
BITMAP
00200000
00100000
000C0000
0003FC00
00000380
00000040
00000020
00000020
00000020
FFFFFFF8
00040000
00040000
00040000
1C6C0000
3EF80000
63980000
41180000
F9180F00
F8101F00
F8101F00
F0101E00
00300600
00200400
00200C00
00201800
00603000
00406000
0041C000
00478000
007E0000
00380000
ENDCHAR
STARTCHAR C229
ENCODING 229
SWIDTH 720 0
DWIDTH 25 0
BBX 26 21 5 1
BITMAP
FFFFFFC0
00020000
1E060000
3F760000
21FE0000
408C0000
788C2000
780C6000
780CF000
700B9000
081F1000
080C1000
08001000
08001000
08003000
0C002000
04006000
0600C000
03838000
01FF0000
007C0000
ENDCHAR
STARTCHAR C230
ENCODING 230
SWIDTH 604 0
DWIDTH 21 0
BBX 23 22 4 0
BITMAP
7FFFFE
000020
000020
01E320
07F7A0
0E1CE0
0E0840
1E0840
1E0040
1C00C0
000080
000080
0FC080
383180
E01900
907D00
08E300
0BC300
0F0200
1C0200
780200
000600
ENDCHAR
STARTCHAR C231
ENCODING 231
SWIDTH 604 0
DWIDTH 21 0
BBX 22 23 5 -1
BITMAP
FFFFFC
000040
000040
000040
000040
0F80C0
3FDC80
707E80
402380
B82180
F80100
F80100
700F00
007F00
01F200
078200
07C200
00E600
003400
001C00
001C00
000C00
000800
ENDCHAR
STARTCHAR C232
ENCODING 232
SWIDTH 691 0
DWIDTH 24 0
BBX 25 23 5 -1
BITMAP
FFFFFF80
00008800
00010800
00010800
0F190800
3FBD1800
70E71000
40461000
B8421000
F8023000
F8062000
70042000
00042000
00046000
003C4000
007E4000
00FF4000
00F9C000
00718000
00008000
00008000
00018000
00010000
ENDCHAR
STARTCHAR C233
ENCODING 233
SWIDTH 604 0
DWIDTH 21 0
BBX 24 22 3 0
BITMAP
3FFFFF
000010
000010
000010
03E390
0FF7F0
1C1C60
100860
2E0820
3E0060
3E0040
1C0040
0F8040
3FCEC0
705F80
403180
B82080
F80180
F80100
700100
000100
000300
ENDCHAR
STARTCHAR C234
ENCODING 234
SWIDTH 835 0
DWIDTH 29 0
BBX 30 23 5 0
BITMAP
00010000
F871FFFC
1CF90000
078B0000
07870000
0FC70000
1FE28000
3FE6C000
7FE67800
7BE43F00
71C40700
00040100
000C0100
00080300
00080200
00080600
00180C00
00101800
00107000
0010E000
00138000
001F0000
000C0000
ENDCHAR
STARTCHAR C235
ENCODING 235
SWIDTH 864 0
DWIDTH 30 0
BBX 31 24 5 -1
BITMAP
00008000
FC38FFFE
1E7C8000
02C5C000
03C38000
0FE3C000
1FF3FF00
3FF33F80
7FF31CC0
7DF738C0
70E671C0
0007E180
00038380
00000700
00001E00
0003F800
0001E000
0000C000
00006000
00003000
00001800
00000800
00000400
00000600
ENDCHAR
STARTCHAR C236
ENCODING 236
SWIDTH 604 0
DWIDTH 21 0
BBX 22 23 5 -1
BITMAP
FC1C3C
1E7E60
03E340
03C140
07E0C0
0FF0C0
1FF080
3FF080
3DF080
38E180
000100
000100
000100
07C300
1FE200
3E3200
3E1A00
3E0E00
1C0C00
000400
000400
000C00
000800
ENDCHAR
STARTCHAR C237
ENCODING 237
SWIDTH 720 0
DWIDTH 25 0
BBX 26 23 5 -1
BITMAP
F838FFC0
1C7C8400
06C68400
03828400
0FC18400
1FE10C00
3FE10800
7FE10800
7DE30800
70C21800
00021000
00021000
00061000
00043000
003E2000
007F2000
007DA000
007CE000
0038C000
00004000
00004000
0000C000
00008000
ENDCHAR
STARTCHAR C238
ENCODING 238
SWIDTH 604 0
DWIDTH 21 0
BBX 22 22 5 0
BITMAP
FC1C3C
1E7E60
03E340
03C140
07E0C0
0FF0C0
1FF080
3FF080
3DF080
38E180
000100
000100
1E0100
3F3B00
617E00
40C600
F88600
F80600
F80400
F00400
000400
000C00
ENDCHAR
STARTCHAR C239
ENCODING 239
SWIDTH 604 0
DWIDTH 21 0
BBX 22 23 5 -1
BITMAP
FC1C3C
1E7E60
03E340
03C140
07E0C0
0FF0C0
1FF080
3FF080
3DF080
38E180
000100
000100
000F00
007F00
01F200
078200
07C200
00E600
003400
001C00
001C00
000C00
000800
ENDCHAR
STARTCHAR C240
ENCODING 240
SWIDTH 604 0
DWIDTH 21 0
BBX 23 23 4 -1
BITMAP
7FFFFE
00FC00
038200
0E0200
190600
308C00
205800
207800
21FE00
1FFF00
071180
1C10C0
7810C0
E033C0
782780
1C2780
062700
036000
01C000
01C000
00C000
00C000
004000
ENDCHAR
STARTCHAR C241
ENCODING 241
SWIDTH 806 0
DWIDTH 28 0
BBX 29 25 5 -3
BITMAP
FFFFFFF8
01F80000
07040000
1C040000
320C0000
61180000
40B00000
40EF0000
43BF8000
3EF0C000
01C0C000
0381FC00
23E1CE00
23E19F00
63E1BF00
41C3BE00
40031C00
40030000
40070000
60060000
3FE60000
1FFE0000
001E0000
000C0000
00040000
ENDCHAR
STARTCHAR C242
ENCODING 242
SWIDTH 547 0
DWIDTH 19 0
BBX 21 32 4 -1
BITMAP
100000
0C0000
038000
007C00
000380
000040
000020
000020
000020
7FFFF8
007C00
03C200
0E0200
1A0600
310400
208C00
605800
407000
40E000
438000
3F0000
1C1E00
303E00
603E00
C03C00
800800
801800
803000
806000
41C000
7F8000
3E0000
ENDCHAR
STARTCHAR C243
ENCODING 243
SWIDTH 604 0
DWIDTH 21 0
BBX 22 33 5 1
BITMAP
000600
000E00
000C00
001C00
001800
001800
003800
003000
003000
003000
003000
003000
FFFFFC
01F800
071800
0C1C00
1C3C00
343200
227300
616100
41E180
41C180
47C180
3F8180
070380
0E0700
3C0600
700E00
601C00
203800
30F000
1FC000
0F0000
ENDCHAR
STARTCHAR C244
ENCODING 244
SWIDTH 806 0
DWIDTH 28 0
BBX 25 22 5 0
BITMAP
FFFF0000
38010F00
0C013F80
06037080
0302C080
01038080
01830100
07C60F00
0E641E00
1C341F00
381C0100
F00E0100
E00A0100
B8090200
0C098600
0618FC00
03107800
01900000
00D00000
00700000
00600000
00200000
ENDCHAR
STARTCHAR C245
ENCODING 245
SWIDTH 864 0
DWIDTH 30 0
BBX 31 23 5 0
BITMAP
00000010
FFE0FC1E
07138230
0C160120
1C3C0320
323C07A0
22621EE0
61C13840
41817040
4701E040
3C0380C0
00070080
00060080
00000080
00000180
00000100
00000100
00000100
00000300
00000200
00000200
00000200
00000600
ENDCHAR
STARTCHAR C246
ENCODING 246
SWIDTH 806 0
DWIDTH 28 0
BBX 29 23 5 -1
BITMAP
FFFFFFF8
03E00000
0E100000
18100000
34301E00
22201F00
62601180
41F01080
43983080
3E182080
00382180
00702700
00E06F00
01C04E00
03804C00
01E04000
0070C000
00188000
000C8000
00068000
00038000
00030000
00010000
ENDCHAR
STARTCHAR C247
ENCODING 247
SWIDTH 604 0
DWIDTH 21 0
BBX 22 23 5 -1
BITMAP
FFFFFC
01F840
070440
1C0440
320C40
6118C0
40B080
40E080
43C080
3E4180
00C100
008100
078100
0FE300
1FF200
1F1A00
0E0A00
000E00
000C00
000400
000400
000C00
000800
ENDCHAR
STARTCHAR C248
ENCODING 248
SWIDTH 748 0
DWIDTH 26 0
BBX 27 23 5 -1
BITMAP
FFFFFFE0
00E03000
00E03000
01E03000
01E03000
03303000
46186000
7C07C000
0001C000
0007E000
001EF000
00789800
00E18C00
03810C00
03C10C00
00E17C00
0033F800
001AF000
001AE000
000E0000
000E0000
000C0000
00040000
ENDCHAR
STARTCHAR C249
ENCODING 249
SWIDTH 835 0
DWIDTH 29 0
BBX 30 24 5 -2
BITMAP
FFFFFFFC
00606000
00E03000
01E03000
01B03000
03303000
66186000
3C0FC000
003FC000
0070C000
00E0C000
01C1FE00
21F1E700
21F1CF80
61F19F80
41E19F00
40038E00
40030000
40030000
60030000
3F870000
1FFE0000
007E0000
00060000
ENDCHAR
STARTCHAR C250
ENCODING 250
SWIDTH 748 0
DWIDTH 26 0
BBX 27 27 5 -5
BITMAP
FFFFFFE0
00E03000
00E03000
01E03000
01E03000
03303000
46186000
7C07C000
0000C000
0003E000
000FF000
003C9800
00F19800
01C11800
01E13800
00717800
001B7800
000E7000
3E360000
7F7E0000
41CE0000
F8840000
F8040000
F8040000
F00C0000
00080000
00080000
ENDCHAR
STARTCHAR C251
ENCODING 251
SWIDTH 806 0
DWIDTH 28 0
BBX 29 23 5 0
BITMAP
00000040
FFFE0078
018300C0
01818080
03C18080
03C18080
06C18180
4C630100
781F0100
00038100
0002C300
00764200
00FC4200
00F84200
00F0C600
00038400
000E0400
00180400
001E0C00
00038800
0000C800
00006800
00003800
ENDCHAR
STARTCHAR C252
ENCODING 252
SWIDTH 835 0
DWIDTH 29 0
BBX 31 31 4 0
BITMAP
00100000
00080000
00070000
0000FF00
000000E0
00000010
00000008
00000008
00000008
7FFFFFFE
0E00C000
0F00C000
01808000
00808000
00818000
00810000
00B90000
00FD0380
01C70780
83820780
CF020780
7C020100
38060300
00040200
00040600
000C0C00
000C1800
00087000
0008E000
000F8000
00070000
ENDCHAR
STARTCHAR C253
ENCODING 253
SWIDTH 691 0
DWIDTH 24 0
BBX 25 23 5 -1
BITMAP
FFFFFF80
00300C00
00700C00
00780C00
00D80C00
00D80C00
018C0C00
F3061800
5E07F000
400FC000
601F6000
201F2000
201F2000
300E2000
10002000
10002000
18006000
08004000
0C00C000
06018000
03870000
01FE0000
00780000
ENDCHAR
STARTCHAR C254
ENCODING 254
SWIDTH 604 0
DWIDTH 21 0
BBX 22 25 5 -3
BITMAP
FFFFFC
0180C0
01C0C0
03C0C0
03C0C0
06C0C0
0660C0
CC3180
780F00
007E00
03FF00
478100
4E0100
5E0300
5E7E00
5CFC00
40F800
40F800
400400
200400
200400
100C00
183800
0FF000
07C000
ENDCHAR
STARTCHAR C255
ENCODING 255
SWIDTH 633 0
DWIDTH 22 0
BBX 24 25 4 -3
BITMAP
7FFFFF
003030
007018
00F018
00D818
019818
330C30
1E07E0
001FC0
007860
00E060
01C0E0
21F0C0
61F0C0
41F0C0
C1E1C0
800180
800180
800180
800380
C00300
7FFF00
3FFF00
000300
000200
ENDCHAR
ENDFONT
